<svg width="64" height="64" viewBox="0 0 64 64" fill="none" xmlns="http://www.w3.org/2000/svg">
<path opacity="0.3" fill-rule="evenodd" clip-rule="evenodd" d="M49 30.5C47.5 26.4 44.3 19 41.3 19C36.6 19 36.6 20.3 34.8 20.3C33.9 20.3 30.4 20.3 29.2 20.3C27.4 20.3 27.4 19 22.7 19C19.8 19 16.5 26.4 15 30.5C12.3 38.5 12.1 42 17.7 42C23.9 42 23.9 36.8 31.9 36.8C39.9 36.8 40.2 42 46.1 42C51.7 42 51.7 38.5 49 30.5ZM28.5 29.7H25.8C25.5 29.7 25.3 29.9 25.3 30.2V32.6C25.3 32.9 25.1 33.1 24.8 33.1H23.4C23.1 33.1 22.9 32.9 22.9 32.6V30.2C22.9 29.9 22.7 29.7 22.4 29.7H20C19.7 29.7 19.5 29.5 19.5 29.2V27.8C19.5 27.5 19.7 27.3 20 27.3H22.4C22.7 27.3 22.9 27.1 22.9 26.8V24.1C22.9 23.8 23.1 23.6 23.4 23.6H24.8C25.1 23.6 25.3 23.8 25.3 24.1V26.8C25.3 27.1 25.5 27.3 25.8 27.3H28.5C28.8 27.3 29 27.5 29 27.8V29.2C29 29.5 28.7 29.7 28.5 29.7ZM43.6 33.6C39.3 35.9 35 32.6 35.5 28.4C35.8 25.6 38.1 23.3 41 23.4C44.1 23.5 46.9 26.3 46.3 29.9C46 31.6 45 32.9 43.6 33.6Z" fill="black" stroke="black" stroke-width="4" stroke-miterlimit="10"/>
<path d="M41.9001 33.5C45.3001 33.5 48 30.8001 48 27.4001C48 24.0001 45.3001 21.3 41.9001 21.3C38.5001 21.3 35.8 24.0001 35.8 27.4001C35.8 30.8001 38.5001 33.5 41.9001 33.5Z" fill="#7F7F7F"/>
<path fill-rule="evenodd" clip-rule="evenodd" d="M50.9 29.2C49.3 24.6 45.6 16.4 42.4 16.4C37.1 16.4 37.1 17.8 35.2 17.8C34.2 17.8 30.3 17.8 29 17.8C27 17.8 27 16.4 21.8 16.4C18.5 16.4 14.9 24.6 13.3 29.2C10.3 38.1 9.99998 42 16.3 42C23.2 42 23.2 36.2 32.1 36.2C41 36.2 41.1 42 47.7 42C53.9 42 53.9 38.1 50.9 29.2ZM28.1 28.3H25.1C24.8 28.3 24.5 28.6 24.5 28.9V31.6C24.5 31.9 24.2 32.2 23.9 32.2H22.3C22 32.2 21.7 31.9 21.7 31.6V28.9C21.7 28.6 21.4 28.3 21.1 28.3H18.4C18.1 28.3 17.8 28 17.8 27.7V26.1C17.8 25.8 18.1 25.5 18.4 25.5H21.1C21.4 25.5 21.7 25.2 21.7 24.9V21.9C21.7 21.6 22 21.3 22.3 21.3H24C24.3 21.3 24.6 21.6 24.6 21.9V24.9C24.6 25.2 24.9 25.5 25.2 25.5H28.2C28.5 25.5 28.8 25.8 28.8 26.1V27.7C28.6 28.1 28.4 28.3 28.1 28.3ZM44.9 32.7C40.1 35.2 35.3 31.6 35.8 26.9C36.1 23.8 38.7 21.2 41.9 21.3C45.4 21.4 48.5 24.5 47.9 28.6C47.6 30.4 46.5 31.9 44.9 32.7Z" fill="url(#paint0_linear_11318_30131)"/>
<path d="M54.4489 27.9886L54.449 27.9885L54.4466 27.9818L54.4419 27.9682L54.4418 27.9681C53.5929 25.5273 52.1761 22.0893 50.4925 19.1913C49.6582 17.7552 48.6653 16.2881 47.5345 15.1316C46.5181 14.092 44.7597 12.65 42.4 12.65C39.3793 12.65 37.579 13.0554 36.1658 13.605C35.5933 13.8277 35.2876 13.9596 35.1161 14.0404C35.1091 14.0437 35.1024 14.0469 35.0958 14.05H29.0343C29.0154 14.0413 28.994 14.0316 28.9699 14.0207C28.7976 13.9431 28.5026 13.8163 27.9592 13.605C26.5576 13.06 24.7856 12.65 21.8 12.65C19.4415 12.65 17.6769 14.06 16.6307 15.124C15.4863 16.2879 14.4926 17.7635 13.6633 19.2029C11.9896 22.1075 10.6 25.5477 9.75812 27.9681L9.75811 27.9681L9.75337 27.9817L9.75334 27.9817L9.75104 27.9885L9.74643 28.0022L10.4571 28.2418L9.74643 28.0022C8.98454 30.2625 8.34952 32.333 7.95275 34.1581C7.56718 35.9318 7.32972 37.7991 7.61055 39.536C7.9204 41.4526 8.88208 43.2603 10.7701 44.4354C12.4491 45.4803 14.4377 45.75 16.3 45.75C20.7888 45.75 23.3789 43.8244 25.2657 42.4216L25.2755 42.4143L24.8281 41.8125L25.2755 42.4143C25.4111 42.3136 25.5416 42.2166 25.6692 42.1228C26.6002 41.4393 27.3378 40.9488 28.2396 40.5881C29.1146 40.2381 30.3053 39.95 32.1 39.95C33.8953 39.95 35.0939 40.2383 35.9755 40.5897C36.8806 40.9505 37.6214 41.4418 38.5341 42.1161C38.6769 42.2216 38.8237 42.332 38.9777 42.4478L38.9906 42.4574C40.8141 43.8284 43.3701 45.75 47.7 45.75C49.555 45.75 51.5208 45.4743 53.1944 44.4505C55.0542 43.3127 56.0659 41.5588 56.433 39.6432C56.7676 37.8967 56.5757 36.0159 56.214 34.2159C55.8427 32.3684 55.2219 30.2817 54.4535 28.0022C54.4535 28.0022 54.4535 28.0022 54.4535 28.0022L54.4489 27.9886ZM29.1279 14.0932C29.1385 14.0974 29.1397 14.0985 29.1286 14.0935C29.1284 14.0934 29.1281 14.0933 29.1279 14.0932Z" stroke="#636363" stroke-width="1.5"/>
<path d="M6.66671 26.9641L7.61283 27.283L6.66671 26.9641C5.89443 29.2552 5.21287 31.4625 4.77695 33.4677C4.36148 35.3788 4.02444 37.7181 4.40223 40.0548C4.83341 42.7217 6.22696 45.4359 9.05289 47.1946C11.484 48.7076 14.1882 49 16.3 49C21.8651 49 25.1753 46.5388 27.1715 45.0546L27.1801 45.0482L27.2146 45.0225C27.3517 44.9206 27.4742 44.8296 27.5926 44.7426C28.4775 44.093 28.9431 43.807 29.4466 43.6056C29.902 43.4235 30.6785 43.2 32.1 43.2C33.5227 43.2 34.3085 43.4239 34.772 43.6087C35.278 43.8104 35.7471 44.0978 36.6028 44.73L37.197 43.9257L36.6028 44.73C36.7328 44.8261 36.8685 44.9281 37.0247 45.0455L37.0692 45.079L37.0803 45.0873C39.0007 46.5313 42.2837 49 47.7 49C49.8195 49 52.4814 48.6965 54.8904 47.2229C57.6507 45.5343 59.114 42.9212 59.6249 40.2549C60.0761 37.9001 59.7942 35.5356 59.4003 33.5755C58.9889 31.5287 58.3176 29.291 57.5333 26.9641L57.5242 26.9372L57.5243 26.9372L57.5211 26.928L57.5115 26.9004L57.5115 26.9004C56.62 24.3375 55.1238 20.6934 53.3027 17.5587C52.4059 16.0151 51.2566 14.2897 49.8584 12.8595C48.6765 11.6507 46.1139 9.40002 42.4 9.40002C39.0581 9.40002 36.846 9.85337 34.9879 10.576C34.7737 10.6593 34.5874 10.7335 34.4243 10.8H29.7007C29.5415 10.7351 29.3557 10.661 29.1371 10.576L28.7772 11.5016L29.1371 10.576C27.3008 9.86185 25.1197 9.40002 21.8 9.40002C18.1095 9.40002 15.5462 11.5916 14.3134 12.8453C12.8936 14.2892 11.7403 16.0305 10.8473 17.5803C9.03403 20.7273 7.56669 24.3756 6.68852 26.9004L6.68851 26.9004L6.67902 26.9277L6.67898 26.9277L6.67592 26.9367L6.66671 26.9641Z" stroke="#A5A5A5" stroke-width="2"/>
<path d="M41.9 26.2C42.7 26.2 43.4 25.5 43.4 24.7C43.4 23.9 42.7 23.2 41.9 23.2C41.1 23.2 40.4 23.9 40.4 24.7C40.4 25.5 41.1 26.2 41.9 26.2Z" fill="white" stroke="#BFBFBF" stroke-width="0.25" stroke-miterlimit="10"/>
<path d="M44.8 29.1C45.6 29.1 46.3 28.4 46.3 27.6C46.3 26.8 45.6 26.1 44.8 26.1C44 26.1 43.3 26.8 43.3 27.6C43.3 28.4 44 29.1 44.8 29.1Z" fill="white" stroke="#BFBFBF" stroke-width="0.25" stroke-miterlimit="10"/>
<path d="M39 29.1C39.8 29.1 40.5 28.4 40.5 27.6C40.5 26.8 39.8 26.1 39 26.1C38.2 26.1 37.5 26.8 37.5 27.6C37.5 28.4 38.2 29.1 39 29.1Z" fill="white" stroke="#BFBFBF" stroke-width="0.25" stroke-miterlimit="10"/>
<path d="M41.9 31.7C42.7 31.7 43.4 31 43.4 30.2C43.4 29.4 42.7 28.7 41.9 28.7C41.1 28.7 40.4 29.4 40.4 30.2C40.4 31 41.1 31.7 41.9 31.7Z" fill="white" stroke="#BFBFBF" stroke-width="0.25" stroke-miterlimit="10"/>
<path fill-rule="evenodd" clip-rule="evenodd" d="M28.1 28.3H25.1C24.8 28.3 24.5 28.6001 24.5 28.9001V31.6C24.5 31.9 24.2 32.2001 23.9 32.2001H22.3C22 32.2001 21.7001 31.9 21.7001 31.6V28.9001C21.7001 28.6001 21.4 28.3 21.1 28.3H18.4C18.1 28.3 17.8 28.0001 17.8 27.7001V26.1C17.8 25.8 18.1 25.5 18.4 25.5H21.1C21.4 25.5 21.7001 25.2001 21.7001 24.9001V21.9C21.7001 21.6 22 21.3 22.3 21.3H24C24.3 21.3 24.6 21.6 24.6 21.9V24.9001C24.6 25.2001 24.9001 25.5 25.2001 25.5H28.2001C28.5001 25.5 28.8 25.8 28.8 26.1V27.7001C28.6 28.1001 28.4001 28.3 28.1 28.3Z" fill="#E5E5E5" stroke="#BFBFBF" stroke-width="0.25" stroke-miterlimit="10"/>
<defs>
<linearGradient id="paint0_linear_11318_30131" x1="32.1444" y1="16.6896" x2="31.9936" y2="49.413" gradientUnits="userSpaceOnUse">
<stop stop-color="#BFBFBF"/>
<stop offset="1" stop-color="#545454"/>
</linearGradient>
</defs>
</svg>
