<svg width="16" height="16" viewBox="0 0 16 16" fill="none" xmlns="http://www.w3.org/2000/svg">
<path opacity="0.5" fill-rule="evenodd" clip-rule="evenodd" d="M13.1398 8C12.6898 6.73 11.73 4.51001 10.8 4.51001C9.39999 4.51001 9.40999 5.79004 8.79999 5.79004H7.09003C6.52003 5.79004 6.56986 4.51001 5.16986 4.51001C4.22986 4.51001 3.26002 6.73 2.83002 8C2.03002 10.37 1.94985 11.51 3.65985 11.51C5.57985 11.51 5.50991 9.33997 7.96991 9.33997C10.4299 9.33997 10.4299 11.51 12.2299 11.51C14.0299 11.51 13.9998 10.39 13.1398 8ZM6.99994 8H5.99994V9H4.99994V8H3.99994V7H4.99994V6H5.99994V7H6.99994V8ZM10.4999 9.25C10.1538 9.25 9.81556 9.14737 9.52777 8.95508C9.23999 8.76279 9.0157 8.48945 8.88324 8.16968C8.75079 7.84991 8.71611 7.49804 8.78363 7.15857C8.85116 6.8191 9.01765 6.50732 9.26239 6.26257C9.50713 6.01783 9.81917 5.85109 10.1586 5.78357C10.4981 5.71605 10.8498 5.75073 11.1696 5.88318C11.4894 6.01563 11.7627 6.23992 11.955 6.52771C12.1473 6.8155 12.2499 7.15388 12.2499 7.5C12.2499 7.96413 12.0657 8.40924 11.7375 8.73743C11.4093 9.06562 10.9641 9.25 10.4999 9.25ZM10.4999 7C10.4011 7 10.3043 7.02929 10.2221 7.08423C10.1399 7.13917 10.0759 7.21735 10.038 7.30872C10.0002 7.40008 9.99017 7.50054 10.0095 7.59753C10.0288 7.69452 10.0765 7.78359 10.1464 7.85352C10.2164 7.92344 10.3053 7.97106 10.4023 7.99036C10.4993 8.00965 10.6 7.99976 10.6913 7.96191C10.7827 7.92407 10.8608 7.86006 10.9157 7.77783C10.9707 7.69561 10.9999 7.59889 10.9999 7.5C10.9999 7.36739 10.9472 7.24025 10.8535 7.14648C10.7597 7.05272 10.6325 7 10.4999 7Z" fill="white"/>
<path d="M11.1416 2.67396C10.6352 2.66885 10.1366 2.80972 9.69638 3.08245C9.25615 3.35518 8.88989 3.75002 8.63484 4.22682H7.32798C7.0836 3.74077 6.72185 3.33694 6.28186 3.05907C5.84188 2.78121 5.34062 2.63994 4.83221 2.65058C3.10754 2.65058 1.89689 5.41779 1.17917 7.74131C0.461455 10.0648 0.215084 11.5244 0.922091 12.5986C1.18656 12.9499 1.52595 13.225 1.91067 13.4C2.29539 13.5751 2.71376 13.6447 3.12887 13.6027C3.68396 13.5906 4.2297 13.4439 4.72629 13.1733C5.22287 12.9026 5.65776 12.5148 5.99967 12.038C6.22774 11.6919 6.52878 11.4105 6.87736 11.2175C7.22595 11.0244 7.61201 10.9255 8.00298 10.9288C8.39896 10.9387 8.78728 11.0495 9.13697 11.2522C9.48666 11.455 9.7879 11.7441 10.0168 12.0964C10.3554 12.5582 10.7815 12.9349 11.2658 13.2009C11.7502 13.4669 12.2815 13.6158 12.8235 13.6376C13.2497 13.6813 13.6789 13.6093 14.0733 13.428C14.4677 13.2466 14.8149 12.9617 15.0836 12.5986C15.8013 11.431 15.5121 9.92475 14.8158 7.76469C13.1768 2.68562 11.6451 2.67396 11.1416 2.67396Z" stroke="white"/>
</svg>
