<svg width="64" height="64" viewBox="0 0 64 64" fill="none" xmlns="http://www.w3.org/2000/svg">
<g clip-path="url(#clip0_10717_29985)">
<g opacity="0.2">
<path fill-rule="evenodd" clip-rule="evenodd" d="M25.9 62C31.55 62 31.55 57.25 38.9 57.25C46.25 57.25 46.22 62 51.63 62C56.71 62 56.71 58.8 54.25 51.51C54.07 50.98 53.85 50.39 53.6 49.76C53.0346 49.9058 52.4538 49.9831 51.87 49.99V49.99C51.8698 50.8315 51.6602 51.6597 51.26 52.4C50.8575 53.1391 50.275 53.7646 49.5664 54.2187C48.8579 54.6727 48.0462 54.9406 47.2065 54.9974C46.3669 55.0543 45.5265 54.8982 44.7632 54.5438C43.9999 54.1894 43.3384 53.6481 42.84 52.97C42.3493 52.2894 42.0302 51.5004 41.91 50.67C41.7986 49.8356 41.8997 48.9866 42.2039 48.2017C42.508 47.4168 43.0054 46.7214 43.65 46.18C42.1448 45.4816 40.4988 45.1394 38.84 45.18C36.6528 45.1257 34.5043 45.7626 32.7 47V48C32.7148 48.1248 32.7712 48.241 32.8601 48.3299C32.949 48.4188 33.0652 48.4752 33.19 48.49H35.65C35.7784 48.4949 35.9001 48.5481 35.991 48.639C36.0818 48.7298 36.135 48.8516 36.14 48.98V50.29C35.98 50.62 35.81 50.78 35.57 50.78H33.11C32.9816 50.7849 32.8598 50.8381 32.769 50.929C32.6781 51.0198 32.6249 51.1416 32.62 51.27V53.49C32.6051 53.6148 32.5487 53.731 32.4599 53.8199C32.371 53.9088 32.2548 53.9652 32.13 53.98H30.81C30.6852 53.9652 30.569 53.9088 30.4801 53.8199C30.3912 53.731 30.3348 53.6148 30.32 53.49V51.24C30.315 51.1116 30.2618 50.9898 30.171 50.899C30.0801 50.8081 29.9583 50.7549 29.83 50.75H27.62C27.4916 50.745 27.3698 50.6918 27.279 50.601C27.1881 50.5102 27.1349 50.3884 27.13 50.26V49.89C26.7226 49.9514 26.3118 49.9882 25.9 50C25.2847 50.0072 24.6706 49.9435 24.07 49.81C23.83 50.41 23.62 50.99 23.44 51.51C21 58.78 20.73 62 25.9 62Z" fill="black"/>
</g>
<path fill-rule="evenodd" clip-rule="evenodd" d="M25.9 58C31.55 58 31.55 53.25 38.9 53.25C46.25 53.25 46.22 58 51.63 58C56.71 58 56.71 54.8 54.25 47.51C54.07 46.98 53.85 46.39 53.6 45.76C53.0346 45.9058 52.4538 45.9831 51.87 45.99V45.99C51.8698 46.8315 51.6602 47.6597 51.26 48.4C50.8575 49.1391 50.275 49.7646 49.5664 50.2187C48.8579 50.6727 48.0462 50.9406 47.2065 50.9974C46.3669 51.0543 45.5265 50.8982 44.7632 50.5438C43.9999 50.1894 43.3384 49.6481 42.84 48.97C42.3493 48.2894 42.0302 47.5004 41.91 46.67C41.7986 45.8356 41.8997 44.9866 42.2039 44.2017C42.508 43.4168 43.0054 42.7214 43.65 42.18C42.1448 41.4816 40.4988 41.1394 38.84 41.18C36.6528 41.1257 34.5043 41.7626 32.7 43V44C32.7148 44.1248 32.7712 44.241 32.8601 44.3299C32.949 44.4188 33.0652 44.4752 33.19 44.49H35.65C35.7784 44.4949 35.9001 44.5481 35.991 44.639C36.0818 44.7298 36.135 44.8516 36.14 44.98V46.29C35.98 46.62 35.81 46.78 35.57 46.78H33.11C32.9816 46.7849 32.8598 46.8381 32.769 46.929C32.6781 47.0198 32.6249 47.1416 32.62 47.27V49.49C32.6051 49.6148 32.5487 49.731 32.4599 49.8199C32.371 49.9088 32.2548 49.9652 32.13 49.98H30.81C30.6852 49.9652 30.569 49.9088 30.4801 49.8199C30.3912 49.731 30.3348 49.6148 30.32 49.49V47.24C30.315 47.1116 30.2618 46.9898 30.171 46.899C30.0801 46.8081 29.9583 46.7549 29.83 46.75H27.62C27.4916 46.745 27.3698 46.6918 27.279 46.601C27.1881 46.5102 27.1349 46.3884 27.13 46.26V45.89C26.7226 45.9514 26.3118 45.9882 25.9 46C25.2847 46.0072 24.6706 45.9435 24.07 45.81C23.83 46.41 23.62 46.99 23.44 47.51C21 54.78 20.73 58 25.9 58Z" fill="url(#paint0_linear_10717_29985)"/>
<path fill-rule="evenodd" clip-rule="evenodd" d="M46.88 51C48.2061 51 49.4779 50.4732 50.4156 49.5355C51.3533 48.5978 51.88 47.3261 51.88 46H51.64C47.8 46 46.64 43.61 43.64 42.22C42.8719 42.8843 42.3243 43.7668 42.07 44.75C41.8114 45.7417 41.8638 46.789 42.22 47.75C42.5752 48.7006 43.2112 49.5206 44.0436 50.1011C44.876 50.6816 45.8653 50.9951 46.88 51V51Z" fill="#7F7F7F"/>
<path fill-rule="evenodd" clip-rule="evenodd" d="M45.72 43.4399C45.6823 43.5567 45.6588 43.6776 45.65 43.7999C45.666 44.1179 45.8018 44.418 46.03 44.6399C46.2593 44.8607 46.562 44.9889 46.88 44.9999C47.1349 44.9892 47.3799 44.8982 47.58 44.7399" fill="white"/>
<path d="M45.72 43.4399C45.6823 43.5567 45.6588 43.6776 45.65 43.7999C45.666 44.1179 45.8018 44.418 46.03 44.6399C46.2593 44.8607 46.562 44.9889 46.88 44.9999C47.1349 44.9892 47.3799 44.8982 47.58 44.7399" stroke="#BFBFBF" stroke-width="0.2" stroke-miterlimit="10"/>
<path fill-rule="evenodd" clip-rule="evenodd" d="M48.46 45.27C48.3269 45.3837 48.218 45.5232 48.14 45.68C48.0685 45.8457 48.0347 46.0252 48.0409 46.2055C48.0471 46.3859 48.0933 46.5626 48.176 46.723C48.2588 46.8833 48.3761 47.0233 48.5195 47.1329C48.6628 47.2425 48.8288 47.3189 49.0052 47.3566C49.1817 47.3943 49.3643 47.3924 49.54 47.351C49.7156 47.3096 49.8799 47.2297 50.021 47.1172C50.1621 47.0047 50.2764 46.8622 50.3558 46.7002C50.4352 46.5381 50.4776 46.3605 50.48 46.18C50.4795 46.0771 50.4592 45.9752 50.42 45.88" fill="white"/>
<path d="M48.46 45.27C48.3269 45.3837 48.218 45.5232 48.14 45.68C48.0685 45.8457 48.0347 46.0252 48.0409 46.2055C48.0471 46.3859 48.0933 46.5626 48.176 46.723C48.2588 46.8833 48.3761 47.0233 48.5195 47.1329C48.6628 47.2425 48.8288 47.3189 49.0052 47.3566C49.1817 47.3943 49.3643 47.3924 49.54 47.351C49.7156 47.3096 49.8799 47.2297 50.021 47.1172C50.1621 47.0047 50.2764 46.8622 50.3558 46.7002C50.4352 46.5381 50.4776 46.3605 50.48 46.18C50.4795 46.0771 50.4592 45.9752 50.42 45.88" stroke="#BFBFBF" stroke-width="0.2" stroke-miterlimit="10"/>
<path fill-rule="evenodd" clip-rule="evenodd" d="M27.62 46.75H29.83C29.9584 46.7549 30.0802 46.8082 30.171 46.899C30.2619 46.9898 30.3151 47.1116 30.32 47.24V49.46C30.3348 49.5848 30.3912 49.701 30.4801 49.7899C30.569 49.8788 30.6852 49.9352 30.81 49.95H32.13C32.2548 49.9352 32.371 49.8788 32.4599 49.7899C32.5488 49.701 32.6052 49.5848 32.62 49.46V47.24C32.6249 47.1116 32.6782 46.9898 32.769 46.899C32.8598 46.8082 32.9816 46.7549 33.11 46.75H35.57C35.81 46.75 35.98 46.59 36.14 46.26V45C36.1351 44.8716 36.0819 44.7498 35.991 44.659C35.9002 44.5682 35.7784 44.5149 35.65 44.51H33.19C33.0612 44.4991 32.9405 44.4423 32.85 44.35C32.762 44.2535 32.7092 44.1302 32.7 44V43C31.7 43.63 30.92 44.33 29.99 44.89C29.1163 45.4181 28.1424 45.7586 27.13 45.89V46.26C27.1349 46.3884 27.1882 46.5102 27.279 46.601C27.3698 46.6918 27.4916 46.7451 27.62 46.75Z" fill="#E5E5E5"/>
<path d="M27.13 45.89V46.26C27.1349 46.3884 27.1882 46.5102 27.279 46.601C27.3698 46.6918 27.4916 46.7451 27.62 46.75H29.83C29.9584 46.7549 30.0802 46.8082 30.171 46.899C30.2619 46.9898 30.3151 47.1116 30.32 47.24V49.46C30.3348 49.5848 30.3912 49.701 30.4801 49.7899C30.569 49.8788 30.6852 49.9352 30.81 49.95H32.13C32.2548 49.9352 32.371 49.8788 32.4599 49.7899C32.5488 49.701 32.6052 49.5848 32.62 49.46V47.24C32.6249 47.1116 32.6782 46.9898 32.769 46.899C32.8598 46.8082 32.9816 46.7549 33.11 46.75H35.57C35.81 46.75 35.98 46.59 36.14 46.26V45C36.1351 44.8716 36.0819 44.7498 35.991 44.659C35.9002 44.5682 35.7784 44.5149 35.65 44.51H33.19C33.0612 44.4991 32.9405 44.4423 32.85 44.35C32.762 44.2535 32.7092 44.1302 32.7 44V43" stroke="#BFBFBF" stroke-width="0.2" stroke-miterlimit="10"/>
<path d="M44.5 47.41C44.7431 47.4068 44.98 47.3334 45.1823 47.1985C45.3846 47.0636 45.5435 46.8732 45.64 46.65C45.728 46.4243 45.7523 46.1786 45.71 45.94C45.6638 45.6918 45.5435 45.4635 45.365 45.285C45.1865 45.1065 44.9582 44.9862 44.71 44.94C44.4723 44.8945 44.2267 44.9153 44 45C43.7768 45.0965 43.5863 45.2554 43.4515 45.4577C43.3166 45.66 43.2432 45.8969 43.24 46.14C43.2476 46.4638 43.3796 46.7723 43.6087 47.0013C43.8377 47.2303 44.1462 47.3624 44.47 47.37L44.5 47.41Z" fill="white" stroke="#BFBFBF" stroke-width="0.2" stroke-miterlimit="10"/>
<path d="M46.8801 49.54C47.1646 49.5398 47.4403 49.4411 47.6602 49.2604C47.8801 49.0798 48.0306 48.8286 48.086 48.5494C48.1414 48.2703 48.0983 47.9806 47.9641 47.7297C47.8298 47.4788 47.6128 47.2822 47.3498 47.1734C47.0869 47.0646 46.7944 47.0503 46.5221 47.133C46.2498 47.2157 46.0146 47.3903 45.8566 47.6269C45.6986 47.8636 45.6275 48.1477 45.6555 48.4309C45.6835 48.7141 45.8088 48.9788 46.0101 49.18C46.1243 49.2942 46.26 49.3847 46.4092 49.4465C46.5585 49.5083 46.7185 49.54 46.8801 49.54Z" fill="white" stroke="#BFBFBF" stroke-width="0.2" stroke-miterlimit="10"/>
<g opacity="0.2">
<path fill-rule="evenodd" clip-rule="evenodd" d="M25.9 46C31.55 46 31.55 41.25 38.9 41.25C46.25 41.25 46.22 46 51.63 46C56.71 46 56.71 42.8 54.25 35.51C54.07 34.98 53.85 34.39 53.6 33.76C53.0346 33.9058 52.4538 33.9831 51.87 33.99C51.8698 34.8315 51.6602 35.6597 51.26 36.4C50.8575 37.1391 50.275 37.7646 49.5664 38.2187C48.8579 38.6727 48.0462 38.9406 47.2065 38.9974C46.3669 39.0543 45.5265 38.8982 44.7632 38.5438C43.9999 38.1894 43.3384 37.6481 42.84 36.97C42.3493 36.2894 42.0302 35.5004 41.91 34.67C41.7986 33.8356 41.8997 32.9866 42.2039 32.2017C42.508 31.4168 43.0054 30.7214 43.65 30.18C42.1448 29.4816 40.4988 29.1394 38.84 29.18C36.6528 29.1257 34.5043 29.7626 32.7 31V32C32.7148 32.1248 32.7712 32.241 32.8601 32.3299C32.949 32.4188 33.0652 32.4752 33.19 32.49H35.65C35.7784 32.4949 35.9001 32.5481 35.991 32.639C36.0818 32.7298 36.135 32.8516 36.14 32.98V34.29C35.98 34.62 35.81 34.78 35.57 34.78H33.11C32.9816 34.7849 32.8598 34.8381 32.769 34.929C32.6781 35.0198 32.6249 35.1416 32.62 35.27V37.49C32.6051 37.6148 32.5487 37.731 32.4599 37.8199C32.371 37.9088 32.2548 37.9652 32.13 37.98H30.81C30.6852 37.9652 30.569 37.9088 30.4801 37.8199C30.3912 37.731 30.3348 37.6148 30.32 37.49V35.24C30.315 35.1116 30.2618 34.9898 30.171 34.899C30.0801 34.8081 29.9583 34.7549 29.83 34.75H27.62C27.4916 34.745 27.3698 34.6918 27.279 34.601C27.1881 34.5102 27.1349 34.3884 27.13 34.26V33.89C26.7226 33.9514 26.3118 33.9882 25.9 34C25.2847 34.0072 24.6706 33.9435 24.07 33.81C23.83 34.41 23.62 34.99 23.44 35.51C21 42.78 20.73 46 25.9 46Z" fill="black"/>
</g>
<path fill-rule="evenodd" clip-rule="evenodd" d="M25.9 42C31.55 42 31.55 37.25 38.9 37.25C46.25 37.25 46.22 42 51.63 42C56.71 42 56.71 38.8 54.25 31.51C54.07 30.98 53.85 30.39 53.6 29.76C53.0346 29.9058 52.4538 29.9831 51.87 29.99V29.99C51.8698 30.8315 51.6602 31.6597 51.26 32.4C50.8575 33.1391 50.275 33.7646 49.5664 34.2187C48.8579 34.6727 48.0462 34.9406 47.2065 34.9974C46.3669 35.0543 45.5265 34.8982 44.7632 34.5438C43.9999 34.1894 43.3384 33.6481 42.84 32.97C42.3493 32.2894 42.0302 31.5004 41.91 30.67C41.7986 29.8356 41.8997 28.9866 42.2039 28.2017C42.508 27.4168 43.0054 26.7214 43.65 26.18C42.1448 25.4816 40.4988 25.1394 38.84 25.18C36.6528 25.1257 34.5043 25.7626 32.7 27V28C32.7148 28.1248 32.7712 28.241 32.8601 28.3299C32.949 28.4188 33.0652 28.4752 33.19 28.49H35.65C35.7784 28.4949 35.9001 28.5481 35.991 28.639C36.0818 28.7298 36.135 28.8516 36.14 28.98V30.29C35.98 30.62 35.81 30.78 35.57 30.78H33.11C32.9816 30.7849 32.8598 30.8381 32.769 30.929C32.6781 31.0198 32.6249 31.1416 32.62 31.27V33.49C32.6051 33.6148 32.5487 33.731 32.4599 33.8199C32.371 33.9088 32.2548 33.9652 32.13 33.98H30.81C30.6852 33.9652 30.569 33.9088 30.4801 33.8199C30.3912 33.731 30.3348 33.6148 30.32 33.49V31.24C30.315 31.1116 30.2618 30.9898 30.171 30.899C30.0801 30.8081 29.9583 30.7549 29.83 30.75H27.62C27.4916 30.745 27.3698 30.6918 27.279 30.601C27.1881 30.5102 27.1349 30.3884 27.13 30.26V29.89C26.7226 29.9514 26.3118 29.9882 25.9 30C25.2847 30.0072 24.6706 29.9435 24.07 29.81C23.83 30.41 23.62 30.99 23.44 31.51C21 38.78 20.73 42 25.9 42Z" fill="url(#paint1_linear_10717_29985)"/>
<path fill-rule="evenodd" clip-rule="evenodd" d="M46.88 35C48.2061 35 49.4778 34.4732 50.4155 33.5355C51.3532 32.5978 51.88 31.3261 51.88 30H51.64C47.8 30 46.64 27.61 43.64 26.22C42.8719 26.8843 42.3242 27.7668 42.07 28.75C41.8194 29.7378 41.8767 30.7786 42.2341 31.733C42.5916 32.6874 43.2321 33.5098 44.07 34.09C44.8936 34.6694 45.8731 34.9865 46.88 35V35Z" fill="#7F7F7F"/>
<path fill-rule="evenodd" clip-rule="evenodd" d="M45.72 27.4399C45.6823 27.5567 45.6588 27.6776 45.65 27.7999C45.666 28.1179 45.8018 28.418 46.03 28.6399C46.2593 28.8607 46.562 28.9889 46.88 28.9999C47.1349 28.9892 47.3799 28.8982 47.58 28.7399" fill="white"/>
<path d="M45.72 27.4399C45.6823 27.5567 45.6588 27.6776 45.65 27.7999C45.666 28.1179 45.8018 28.418 46.03 28.6399C46.2593 28.8607 46.562 28.9889 46.88 28.9999C47.1349 28.9892 47.3799 28.8982 47.58 28.7399" stroke="#BFBFBF" stroke-width="0.2" stroke-miterlimit="10"/>
<path fill-rule="evenodd" clip-rule="evenodd" d="M48.46 29.27C48.3269 29.3837 48.218 29.5232 48.14 29.68C48.0685 29.8457 48.0347 30.0252 48.0409 30.2055C48.0471 30.3859 48.0933 30.5626 48.176 30.723C48.2588 30.8833 48.3761 31.0233 48.5195 31.1329C48.6628 31.2425 48.8288 31.3189 49.0052 31.3566C49.1817 31.3943 49.3643 31.3924 49.54 31.351C49.7156 31.3096 49.8799 31.2297 50.021 31.1172C50.1621 31.0047 50.2764 30.8622 50.3558 30.7002C50.4352 30.5381 50.4776 30.3605 50.48 30.18C50.4795 30.0771 50.4592 29.9752 50.42 29.88" fill="white"/>
<path d="M48.46 29.27C48.3269 29.3837 48.218 29.5232 48.14 29.68C48.0685 29.8457 48.0347 30.0252 48.0409 30.2055C48.0471 30.3859 48.0933 30.5626 48.176 30.723C48.2588 30.8833 48.3761 31.0233 48.5195 31.1329C48.6628 31.2425 48.8288 31.3189 49.0052 31.3566C49.1817 31.3943 49.3643 31.3924 49.54 31.351C49.7156 31.3096 49.8799 31.2297 50.021 31.1172C50.1621 31.0047 50.2764 30.8622 50.3558 30.7002C50.4352 30.5381 50.4776 30.3605 50.48 30.18C50.4795 30.0771 50.4592 29.9752 50.42 29.88" stroke="#BFBFBF" stroke-width="0.2" stroke-miterlimit="10"/>
<path fill-rule="evenodd" clip-rule="evenodd" d="M27.62 30.75H29.83C29.9584 30.7549 30.0802 30.8082 30.171 30.899C30.2619 30.9898 30.3151 31.1116 30.32 31.24V33.46C30.3348 33.5848 30.3912 33.701 30.4801 33.7899C30.569 33.8788 30.6852 33.9352 30.81 33.95H32.13C32.2548 33.9352 32.371 33.8788 32.4599 33.7899C32.5488 33.701 32.6052 33.5848 32.62 33.46V31.24C32.6249 31.1116 32.6782 30.9898 32.769 30.899C32.8598 30.8082 32.9816 30.7549 33.11 30.75H35.57C35.81 30.75 35.98 30.59 36.14 30.26V29C36.1351 28.8716 36.0819 28.7498 35.991 28.659C35.9002 28.5682 35.7784 28.5149 35.65 28.51H33.19C33.0612 28.4991 32.9405 28.4423 32.85 28.35C32.762 28.2535 32.7092 28.1302 32.7 28V27C31.7 27.63 30.92 28.33 29.99 28.89C29.1188 29.4325 28.1453 29.7899 27.13 29.94V30.31C27.1483 30.4286 27.2072 30.5373 27.2965 30.6175C27.3858 30.6977 27.5001 30.7445 27.62 30.75V30.75Z" fill="#E5E5E5"/>
<path d="M27.13 29.89V30.26C27.1349 30.3884 27.1882 30.5102 27.279 30.601C27.3698 30.6918 27.4916 30.7451 27.62 30.75H29.83C29.9584 30.7549 30.0802 30.8082 30.171 30.899C30.2619 30.9898 30.3151 31.1116 30.32 31.24V33.46C30.3348 33.5848 30.3912 33.701 30.4801 33.7899C30.569 33.8788 30.6852 33.9352 30.81 33.95H32.13C32.2548 33.9352 32.371 33.8788 32.4599 33.7899C32.5488 33.701 32.6052 33.5848 32.62 33.46V31.24C32.6249 31.1116 32.6782 30.9898 32.769 30.899C32.8598 30.8082 32.9816 30.7549 33.11 30.75H35.57C35.81 30.75 35.98 30.59 36.14 30.26V29C36.1351 28.8716 36.0819 28.7498 35.991 28.659C35.9002 28.5682 35.7784 28.5149 35.65 28.51H33.19C33.0612 28.4991 32.9405 28.4423 32.85 28.35C32.762 28.2535 32.7092 28.1302 32.7 28V27" stroke="#BFBFBF" stroke-width="0.2" stroke-miterlimit="10"/>
<path d="M44.5 31.41C44.7431 31.4068 44.98 31.3333 45.1823 31.1985C45.3846 31.0636 45.5435 30.8732 45.64 30.65C45.728 30.4242 45.7523 30.1786 45.71 29.94C45.6638 29.6918 45.5435 29.4635 45.365 29.285C45.1865 29.1065 44.9582 28.9862 44.71 28.94C44.4723 28.8945 44.2267 28.9153 44 29C43.7768 29.0965 43.5863 29.2554 43.4515 29.4577C43.3166 29.66 43.2432 29.8969 43.24 30.14C43.2476 30.4638 43.3796 30.7723 43.6087 31.0013C43.8377 31.2303 44.1462 31.3624 44.47 31.37L44.5 31.41Z" fill="white" stroke="#BFBFBF" stroke-width="0.2" stroke-miterlimit="10"/>
<path d="M46.8801 33.54C47.1646 33.5398 47.4403 33.4411 47.6602 33.2604C47.8801 33.0798 48.0306 32.8286 48.086 32.5494C48.1414 32.2703 48.0983 31.9806 47.9641 31.7297C47.8298 31.4788 47.6128 31.2822 47.3498 31.1734C47.0869 31.0646 46.7944 31.0503 46.5221 31.133C46.2498 31.2157 46.0146 31.3903 45.8566 31.6269C45.6986 31.8636 45.6275 32.1477 45.6555 32.4309C45.6835 32.7141 45.8088 32.9788 46.0101 33.18C46.1243 33.2942 46.26 33.3847 46.4092 33.4465C46.5585 33.5083 46.7185 33.54 46.8801 33.54V33.54Z" fill="white" stroke="#BFBFBF" stroke-width="0.2" stroke-miterlimit="10"/>
<g opacity="0.2">
<path fill-rule="evenodd" clip-rule="evenodd" d="M54.25 19.49C52.94 15.72 49.91 9 47.29 9C42.94 9 42.94 10.15 41.39 10.15H36.31C34.67 10.15 34.67 9 30.4 9C27.7 9 24.75 15.72 23.4 19.49C21 26.78 20.73 30 25.9 30C31.55 30 31.55 25.25 38.9 25.25C46.25 25.25 46.22 30 51.63 30C56.71 30 56.71 26.78 54.25 19.49ZM36.14 18.26C35.98 18.59 35.81 18.75 35.57 18.75H33.11C32.9816 18.7549 32.8599 18.8082 32.769 18.899C32.6782 18.9898 32.625 19.1116 32.62 19.24V21.46C32.6052 21.5848 32.5488 21.701 32.4599 21.7899C32.371 21.8788 32.2548 21.9352 32.13 21.95H30.81C30.6852 21.9352 30.569 21.8788 30.4801 21.7899C30.3912 21.701 30.3349 21.5848 30.32 21.46V19.24C30.3151 19.1116 30.2619 18.9898 30.171 18.899C30.0802 18.8082 29.9584 18.7549 29.83 18.75H27.62C27.4916 18.7451 27.3699 18.6918 27.279 18.601C27.1882 18.5102 27.135 18.3884 27.13 18.26V17C27.135 16.8716 27.1882 16.7498 27.279 16.659C27.3699 16.5682 27.4916 16.5149 27.62 16.51H29.83C29.9584 16.5051 30.0802 16.4518 30.171 16.361C30.2619 16.2702 30.3151 16.1484 30.32 16.02V13.51C30.325 13.3816 30.3782 13.2598 30.469 13.169C30.5599 13.0782 30.6816 13.0249 30.81 13.02H32.21C32.3384 13.0249 32.4602 13.0782 32.551 13.169C32.6419 13.2598 32.6951 13.3816 32.7 13.51V16C32.7149 16.1248 32.7712 16.241 32.8601 16.3299C32.949 16.4188 33.0652 16.4752 33.19 16.49H35.65C35.7784 16.4949 35.9002 16.5482 35.991 16.639C36.0819 16.7298 36.1351 16.8516 36.14 16.98V18.26ZM46.88 23C45.8906 22.9998 44.9235 22.7061 44.1011 22.1561C43.2787 21.606 42.638 20.8244 42.26 19.91C41.8813 18.9886 41.7907 17.974 42 17C42.196 16.0391 42.6702 15.1571 43.3636 14.4636C44.0571 13.7702 44.9391 13.296 45.9 13.1C46.8696 12.9011 47.8766 12.9987 48.79 13.38C50.0152 13.8867 50.9889 14.8593 51.4971 16.0839C52.0053 17.3084 52.0064 18.6847 51.5 19.91C51.2526 20.52 50.8852 21.0742 50.4197 21.5397C49.9542 22.0052 49.4001 22.3726 48.79 22.62C48.1844 22.8706 47.5354 22.9997 46.88 23V23Z" fill="black"/>
</g>
<path fill-rule="evenodd" clip-rule="evenodd" d="M54.25 15.49C52.94 11.72 49.91 5 47.29 5C42.94 5 42.94 6.15 41.39 6.15H36.31C34.67 6.15 34.67 5 30.4 5C27.7 5 24.75 11.72 23.4 15.49C21 22.78 20.73 26 25.9 26C31.55 26 31.55 21.25 38.9 21.25C46.25 21.25 46.22 26 51.63 26C56.71 26 56.71 22.78 54.25 15.49ZM36.14 14.26C35.98 14.59 35.81 14.75 35.57 14.75H33.11C32.9816 14.7549 32.8599 14.8082 32.769 14.899C32.6782 14.9898 32.625 15.1116 32.62 15.24V17.46C32.6052 17.5848 32.5488 17.701 32.4599 17.7899C32.371 17.8788 32.2548 17.9352 32.13 17.95H30.81C30.6852 17.9352 30.569 17.8788 30.4801 17.7899C30.3912 17.701 30.3349 17.5848 30.32 17.46V15.24C30.3151 15.1116 30.2619 14.9898 30.171 14.899C30.0802 14.8082 29.9584 14.7549 29.83 14.75H27.62C27.4916 14.7451 27.3699 14.6918 27.279 14.601C27.1882 14.5102 27.135 14.3884 27.13 14.26V13C27.135 12.8716 27.1882 12.7498 27.279 12.659C27.3699 12.5682 27.4916 12.5149 27.62 12.51H29.83C29.9584 12.5051 30.0802 12.4518 30.171 12.361C30.2619 12.2702 30.3151 12.1484 30.32 12.02V9.51C30.3249 9.37878 30.3784 9.25406 30.47 9.16C30.5605 9.06768 30.6812 9.01091 30.81 9H32.21C32.3384 9.00494 32.4602 9.05815 32.551 9.149C32.6419 9.23984 32.6951 9.36162 32.7 9.49V12C32.7149 12.1248 32.7712 12.241 32.8601 12.3299C32.949 12.4188 33.0652 12.4752 33.19 12.49H35.65C35.7784 12.4949 35.9002 12.5482 35.991 12.639C36.0819 12.7298 36.1351 12.8516 36.14 12.98V14.26ZM46.88 19C45.8906 18.9998 44.9235 18.7061 44.1011 18.1561C43.2787 17.606 42.638 16.8244 42.26 15.91C41.8813 14.9886 41.7907 13.974 42 13C42.196 12.0391 42.6702 11.1571 43.3636 10.4636C44.0571 9.77018 44.9391 9.29597 45.9 9.1C46.8696 8.90111 47.8766 8.99867 48.79 9.38C49.8589 9.82233 50.7413 10.6216 51.2869 11.6415C51.8325 12.6615 52.0076 13.8391 51.7823 14.9737C51.5571 16.1083 50.9454 17.1297 50.0515 17.8639C49.1576 18.598 48.0368 18.9995 46.88 19Z" fill="url(#paint2_linear_10717_29985)"/>
<path d="M46.88 19C47.8694 18.9998 48.8365 18.7062 49.6589 18.1561C50.4814 17.6061 51.1221 16.8244 51.5 15.91C51.8854 14.9906 51.9831 13.976 51.78 13C51.5827 12.0365 51.1055 11.1525 50.4082 10.4588C49.711 9.7651 48.8246 9.29245 47.86 9.10001C46.9 8.90726 45.9044 9.00473 45 9.38001C43.9335 9.82131 43.0525 10.618 42.5065 11.6349C41.9606 12.6518 41.7832 13.8263 42.0046 14.9591C42.226 16.0919 42.8324 17.1132 43.7211 17.8497C44.6097 18.5863 45.7258 18.9927 46.88 19Z" fill="#7F7F7F"/>
<path d="M46.88 13C47.1196 12.993 47.3523 12.9178 47.5507 12.7832C47.7491 12.6485 47.9049 12.4601 48 12.24C48.088 12.0143 48.1123 11.7686 48.07 11.53C48.0238 11.2818 47.9035 11.0535 47.725 10.875C47.5465 10.6965 47.3181 10.5762 47.07 10.53C46.8314 10.4877 46.5857 10.512 46.36 10.6C46.1368 10.6965 45.9463 10.8554 45.8115 11.0577C45.6766 11.26 45.6032 11.4969 45.6 11.74C45.6 11.9072 45.6332 12.0727 45.6978 12.2269C45.7623 12.381 45.8569 12.5208 45.9761 12.6381C46.0952 12.7554 46.2365 12.8478 46.3917 12.9099C46.5468 12.972 46.7128 13.0027 46.88 13V13Z" fill="white" stroke="#BFBFBF" stroke-width="0.2" stroke-miterlimit="10"/>
<path d="M49.25 15.41C49.4917 15.4059 49.7268 15.3307 49.926 15.1938C50.1252 15.0568 50.2796 14.8642 50.37 14.64C50.4596 14.4144 50.4805 14.1674 50.43 13.93C50.3846 13.6899 50.2658 13.4697 50.09 13.3C49.9169 13.1297 49.6969 13.0149 49.4582 12.9704C49.2195 12.9259 48.9729 12.9536 48.75 13.05C48.5288 13.1452 48.34 13.3027 48.2068 13.5034C48.0736 13.7041 48.0018 13.9392 48 14.18C48.0031 14.3429 48.0382 14.5035 48.1034 14.6528C48.1686 14.8021 48.2626 14.9371 48.38 15.05C48.4943 15.1642 48.6299 15.2548 48.7792 15.3165C48.9285 15.3783 49.0884 15.4101 49.25 15.41V15.41Z" fill="white" stroke="#BFBFBF" stroke-width="0.2" stroke-miterlimit="10"/>
<path d="M44.5 15.41C44.7431 15.4068 44.98 15.3333 45.1823 15.1985C45.3846 15.0636 45.5435 14.8732 45.64 14.65C45.728 14.4243 45.7523 14.1786 45.71 13.94C45.6638 13.6918 45.5435 13.4635 45.365 13.285C45.1865 13.1065 44.9582 12.9862 44.71 12.94C44.4723 12.8945 44.2267 12.9153 44 13C43.7768 13.0965 43.5863 13.2554 43.4515 13.4577C43.3166 13.66 43.2432 13.8969 43.24 14.14C43.2476 14.4638 43.3796 14.7723 43.6087 15.0013C43.8377 15.2303 44.1462 15.3624 44.47 15.37L44.5 15.41Z" fill="white" stroke="#BFBFBF" stroke-width="0.2" stroke-miterlimit="10"/>
<path d="M46.8801 17.54C47.1646 17.5398 47.4403 17.4411 47.6602 17.2604C47.8801 17.0798 48.0306 16.8286 48.086 16.5494C48.1414 16.2703 48.0983 15.9806 47.9641 15.7297C47.8298 15.4788 47.6128 15.2822 47.3498 15.1734C47.0869 15.0646 46.7944 15.0503 46.5221 15.133C46.2498 15.2157 46.0146 15.3903 45.8566 15.6269C45.6986 15.8636 45.6275 16.1477 45.6555 16.4309C45.6835 16.7141 45.8088 16.9788 46.0101 17.18C46.1243 17.2942 46.26 17.3847 46.4092 17.4465C46.5585 17.5083 46.7185 17.54 46.8801 17.54V17.54Z" fill="white" stroke="#BFBFBF" stroke-width="0.2" stroke-miterlimit="10"/>
<path fill-rule="evenodd" clip-rule="evenodd" d="M35.57 14.75H33.11C32.9816 14.7549 32.8598 14.8082 32.769 14.899C32.6782 14.9898 32.6249 15.1116 32.62 15.24V17.46C32.6052 17.5848 32.5488 17.701 32.4599 17.7899C32.371 17.8788 32.2548 17.9352 32.13 17.95H30.81C30.6852 17.9352 30.569 17.8788 30.4801 17.7899C30.3912 17.701 30.3348 17.5848 30.32 17.46V15.24C30.3151 15.1116 30.2619 14.9898 30.171 14.899C30.0802 14.8082 29.9584 14.7549 29.83 14.75H27.62C27.4916 14.7451 27.3698 14.6918 27.279 14.601C27.1882 14.5102 27.1349 14.3884 27.13 14.26V13C27.1349 12.8716 27.1882 12.7498 27.279 12.659C27.3698 12.5682 27.4916 12.5149 27.62 12.51H29.83C29.9584 12.5051 30.0802 12.4518 30.171 12.361C30.2619 12.2702 30.3151 12.1484 30.32 12.02V9.51C30.3249 9.37878 30.3784 9.25406 30.47 9.16C30.5605 9.06768 30.6812 9.01091 30.81 9H32.21C32.3384 9.00494 32.4602 9.05815 32.551 9.149C32.6419 9.23984 32.6951 9.36162 32.7 9.49V12C32.7148 12.1248 32.7712 12.241 32.8601 12.3299C32.949 12.4188 33.0652 12.4752 33.19 12.49H35.65C35.7784 12.4949 35.9002 12.5482 35.991 12.639C36.0819 12.7298 36.1351 12.8516 36.14 12.98V14.29C36 14.59 35.81 14.75 35.57 14.75Z" fill="#E5E5E5" stroke="#BFBFBF" stroke-width="0.2" stroke-miterlimit="10"/>
<path fill-rule="evenodd" clip-rule="evenodd" d="M8 10H19V13H11V30H19V33H11V50H19V53H8V10Z" fill="#7F7F7F"/>
</g>
<defs>
<linearGradient id="paint0_linear_10717_29985" x1="38.81" y1="57.98" x2="38.81" y2="41.23" gradientUnits="userSpaceOnUse">
<stop stop-color="#545454"/>
<stop offset="1" stop-color="#BFBFBF"/>
</linearGradient>
<linearGradient id="paint1_linear_10717_29985" x1="38.81" y1="41.98" x2="38.81" y2="25.23" gradientUnits="userSpaceOnUse">
<stop stop-color="#545454"/>
<stop offset="1" stop-color="#BFBFBF"/>
</linearGradient>
<linearGradient id="paint2_linear_10717_29985" x1="38.84" y1="31.46" x2="38.72" y2="4.64" gradientUnits="userSpaceOnUse">
<stop stop-color="#545454"/>
<stop offset="1" stop-color="#BFBFBF"/>
</linearGradient>
<clipPath id="clip0_10717_29985">
<rect width="47.85" height="57" fill="white" transform="translate(8 5)"/>
</clipPath>
</defs>
</svg>
