<svg width="16" height="16" viewBox="0 0 16 16" fill="none" xmlns="http://www.w3.org/2000/svg">
<g clip-path="url(#clip0_10717_30146)">
<path fill-rule="evenodd" clip-rule="evenodd" d="M15.4199 3.67993C14.9499 2.33993 13.9399 0 12.9499 0C11.4799 0 11.4799 1.34985 10.8799 1.34985H9.07006C8.47006 1.34985 8.52006 0 7.07006 0C6.07006 0 5.0701 2.33993 4.6101 3.67993C3.7701 6.17993 3.67997 7.37988 5.47997 7.37988C7.47997 7.37988 7.48002 5.08984 10.03 5.08984C12.58 5.08984 12.62 7.37988 14.53 7.37988C16.44 7.37988 16.3099 6.19993 15.4199 3.67993ZM8.99999 3.67993H7.99999V4.67993H6.99999V3.67993H5.99999V2.67993H6.99999V1.67993H7.99999V2.67993H8.99999V3.67993ZM12.5 4.92993C12.1539 4.92993 11.8156 4.8273 11.5278 4.63501C11.24 4.44272 11.0157 4.16938 10.8833 3.84961C10.7508 3.52984 10.7162 3.17809 10.7837 2.83862C10.8512 2.49916 11.0177 2.18712 11.2624 1.94238C11.5072 1.69764 11.8192 1.53115 12.1587 1.46362C12.4981 1.3961 12.8499 1.43078 13.1697 1.56323C13.4894 1.69569 13.7628 1.91998 13.9551 2.20776C14.1474 2.49555 14.25 2.83381 14.25 3.17993C14.25 3.64406 14.0657 4.08929 13.7375 4.41748C13.4093 4.74567 12.9641 4.92993 12.5 4.92993V4.92993ZM12.5 2.67993C12.4011 2.67993 12.3044 2.70922 12.2222 2.76416C12.1399 2.8191 12.0759 2.89716 12.0381 2.98853C12.0002 3.07989 11.9902 3.1806 12.0095 3.27759C12.0288 3.37458 12.0765 3.46352 12.1465 3.53345C12.2164 3.60337 12.3053 3.65112 12.4023 3.67041C12.4993 3.6897 12.6 3.67969 12.6914 3.64185C12.7828 3.604 12.8608 3.53999 12.9158 3.45776C12.9707 3.37554 13 3.27882 13 3.17993C13 3.04732 12.9473 2.92018 12.8535 2.82642C12.7597 2.73265 12.6326 2.67993 12.5 2.67993Z" fill="white"/>
<path d="M5.44999 11.3699C7.44999 11.3699 7.45004 9.07985 10 9.07985C12.55 9.07985 12.59 11.3699 14.5 11.3699C16.05 11.3699 16.26 10.4999 15.74 8.66994C15.3401 8.80265 14.9214 8.87013 14.5 8.86989C14.1161 8.87192 13.7345 8.81119 13.3702 8.68996C13.1067 8.84597 12.8062 8.92881 12.5 8.92995C12.0359 8.92995 11.5907 8.74568 11.2625 8.41749C10.9343 8.08931 10.75 7.64407 10.75 7.17995C10.7513 7.04184 10.7681 6.90439 10.8001 6.77003C10.5567 6.63241 10.2793 6.56635 10 6.57985C9.63904 6.56256 9.28394 6.67626 9.00004 6.89992V7.67995H8.17997C8.12493 7.74164 8.06478 7.79844 8.00004 7.84987V8.67995H7.00004V8.53004C6.51565 8.75888 5.98569 8.87496 5.44999 8.86989C5.04562 8.87183 4.64371 8.80771 4.26005 8.67995C3.76005 10.4899 3.90999 11.3699 5.44999 11.3699Z" fill="white"/>
<path d="M5.44999 15.3699C7.44999 15.3699 7.45004 13.0798 10 13.0798C12.55 13.0798 12.59 15.3699 14.5 15.3699C16.05 15.3699 16.26 14.4999 15.74 12.6699C15.3401 12.8026 14.9214 12.8701 14.5 12.8699C14.1161 12.8719 13.7345 12.8112 13.3702 12.69C13.1067 12.846 12.8062 12.9288 12.5 12.9299C12.0359 12.9299 11.5907 12.7457 11.2625 12.4175C10.9343 12.0893 10.75 11.6441 10.75 11.1799C10.7513 11.0418 10.7681 10.9044 10.8001 10.77C10.5567 10.6324 10.2793 10.5663 10 10.5798C9.63904 10.5626 9.28394 10.6763 9.00004 10.8999V11.6799H8.17997C8.12493 11.7416 8.06478 11.7984 8.00004 11.8499V12.6799H7.00004V12.53C6.51565 12.7589 5.98569 12.875 5.44999 12.8699C5.04562 12.8718 4.64371 12.8077 4.26005 12.6799C3.76005 14.4899 3.90999 15.3699 5.44999 15.3699Z" fill="white"/>
<path opacity="0.5" d="M0 13.6799H3V12.6799H1V8.67993H3V7.67993H1V3.67993H3V2.67993H0V13.6799Z" fill="white"/>
</g>
<defs>
<clipPath id="clip0_10717_30146">
<rect width="16" height="16" fill="white"/>
</clipPath>
</defs>
</svg>
