<svg width="64" height="64" viewBox="0 0 64 64" fill="none" xmlns="http://www.w3.org/2000/svg">
<g clip-path="url(#clip0_10717_30076)">
<path opacity="0.3" fill-rule="evenodd" clip-rule="evenodd" d="M4 13V37C4.00621 37.4042 4.09863 37.8024 4.27108 38.168C4.44353 38.5336 4.69204 38.8582 5 39.12C5.66071 39.6917 6.50632 40.0044 7.38 40H54.62C55.4937 40.0044 56.3393 39.6917 57 39.12C57.308 38.8582 57.5565 38.5336 57.7289 38.168C57.9014 37.8024 57.9938 37.4042 58 37V13C57.9938 12.5959 57.9014 12.1977 57.7289 11.8321C57.5565 11.4665 57.308 11.1419 57 10.88C56.3393 10.3084 55.4937 9.99571 54.62 10H7.38C6.50632 9.99571 5.66071 10.3084 5 10.88C4.69204 11.1419 4.44353 11.4665 4.27108 11.8321C4.09863 12.1977 4.00621 12.5959 4 13V13Z" fill="black"/>
<path fill-rule="evenodd" clip-rule="evenodd" d="M4 10V34C4.00621 34.4042 4.09863 34.8024 4.27108 35.168C4.44353 35.5336 4.69204 35.8582 5 36.12C5.66071 36.6917 6.50632 37.0044 7.38 37H54.62C55.4937 37.0044 56.3393 36.6917 57 36.12C57.308 35.8582 57.5565 35.5336 57.7289 35.168C57.9014 34.8024 57.9938 34.4042 58 34V10C57.9938 9.59586 57.9014 9.19766 57.7289 8.83206C57.5565 8.46646 57.308 8.14189 57 7.88004C56.3393 7.30837 55.4937 6.99571 54.62 7.00004H7.38C6.50632 6.99571 5.66071 7.30837 5 7.88004C4.69204 8.14189 4.44353 8.46646 4.27108 8.83206C4.09863 9.19766 4.00621 9.59586 4 10V10Z" fill="url(#paint0_linear_10717_30076)"/>
<path d="M44 16H38V10H44V16ZM34 10H28V16H34V10ZM54 10H48V16H54V10ZM31 25H37V19H31V25ZM41 19V25H51V19H41ZM54 28H47V31.27C47.49 31.27 48 31.22 48.68 31.22C49.95 31.22 51.29 32.37 52.56 34H54V28ZM8 34H14V28H8V34ZM24 10H18V16H24V10ZM14 10H8V16H14V10ZM11 25H17V19H11V25ZM21 25H27V19H21V25ZM28.86 31.22C33.72 31.22 33.86 32.48 35.86 32.48H41C41.6805 32.4732 42.3555 32.3584 43 32.14V28H18V34H24C25.23 32.37 26.34 31.22 28.86 31.22Z" fill="#E5E5E5"/>
<path opacity="0.3" fill-rule="evenodd" clip-rule="evenodd" d="M56.14 48.16C54.62 43.79 51.11 36 48.07 36C43.07 36 43.07 37.33 41.23 37.33H35.34C33.44 37.33 33.44 36 28.5 36C25.36 36 21.94 43.79 20.42 48.16C17.57 56.61 17.29 60.32 23.27 60.32C29.83 60.32 29.83 54.81 38.27 54.81C46.71 54.81 46.82 60.32 53.09 60.32C59 60.32 59 56.61 56.14 48.16Z" fill="black"/>
<path d="M47.59 49.24C48.738 49.242 49.8607 48.9033 50.8161 48.2667C51.7714 47.6301 52.5164 46.7244 52.9566 45.6642C53.3968 44.604 53.5125 43.437 53.289 42.3109C53.0656 41.1849 52.513 40.1505 51.7012 39.3388C50.8895 38.5271 49.8551 37.9745 48.7291 37.751C47.6031 37.5275 46.436 37.6432 45.3758 38.0834C44.3156 38.5237 43.4099 39.2686 42.7733 40.2239C42.1368 41.1793 41.798 42.302 41.8 43.45C41.796 44.2115 41.9431 44.9662 42.2326 45.6704C42.5222 46.3747 42.9485 47.0146 43.487 47.553C44.0254 48.0915 44.6653 48.5178 45.3696 48.8074C46.0738 49.0969 46.8285 49.244 47.59 49.24V49.24Z" fill="#7F7F7F"/>
<path fill-rule="evenodd" clip-rule="evenodd" d="M56.14 45.16C54.62 40.79 51.11 33 48.07 33C43.07 33 43.07 34.33 41.23 34.33H35.34C33.44 34.33 33.44 33 28.5 33C25.36 33 21.94 40.79 20.42 45.16C17.57 53.61 17.29 57.32 23.27 57.32C29.83 57.32 29.83 51.81 38.27 51.81C46.71 51.81 46.82 57.32 53.09 57.32C59 57.32 59 53.61 56.14 45.16ZM34.48 44.3H31.63C31.4827 44.3115 31.3443 44.3752 31.2397 44.4797C31.1352 44.5842 31.0715 44.7226 31.06 44.87V47.44C31.0506 47.5881 30.9875 47.7276 30.8826 47.8326C30.7777 47.9375 30.6381 48.0006 30.49 48.01H29C28.8527 47.9985 28.7143 47.9348 28.6097 47.8303C28.5052 47.7258 28.4415 47.5874 28.43 47.44V44.87C28.4206 44.7219 28.3575 44.5824 28.2526 44.4774C28.1477 44.3725 28.0081 44.3094 27.86 44.3H25.27C25.1219 44.2906 24.9824 44.2275 24.8775 44.1226C24.7725 44.0176 24.7095 43.8781 24.7 43.73V42.21C24.7095 42.0619 24.7725 41.9224 24.8775 41.8174C24.9824 41.7125 25.1219 41.6494 25.27 41.64H27.83C27.9781 41.6306 28.1177 41.5675 28.2226 41.4626C28.3275 41.3576 28.3906 41.2181 28.4 41.07V38.22C28.4115 38.0726 28.4752 37.9342 28.5797 37.8297C28.6843 37.7252 28.8227 37.6615 28.97 37.65H30.59C30.7374 37.6615 30.8758 37.7252 30.9803 37.8297C31.0848 37.9342 31.1486 38.0726 31.16 38.22V41.07C31.1695 41.2181 31.2325 41.3576 31.3375 41.4626C31.4424 41.5675 31.5819 41.6306 31.73 41.64H34.58C34.7274 41.6515 34.8658 41.7152 34.9703 41.8197C35.0748 41.9242 35.1386 42.0626 35.15 42.21V43.73C35 44.11 34.77 44.3 34.48 44.3ZM50.48 48.48C45.92 50.86 41.36 47.48 41.84 42.97C41.9606 41.5181 42.6231 40.1648 43.6959 39.1791C44.7687 38.1934 46.1732 37.6475 47.63 37.65C48.4782 37.6819 49.31 37.8933 50.0705 38.2704C50.8309 38.6475 51.5027 39.1817 52.0414 39.8376C52.5801 40.4935 52.9735 41.2563 53.1957 42.0755C53.4178 42.8947 53.4636 43.7518 53.33 44.59C53.1955 45.4226 52.8627 46.2106 52.3597 46.8876C51.8567 47.5647 51.1983 48.1108 50.44 48.48H50.48Z" fill="url(#paint1_linear_10717_30076)"/>
<path d="M47.5899 42.31C47.7871 42.3265 47.9856 42.3019 48.1728 42.2378C48.3599 42.1737 48.5318 42.0715 48.6774 41.9375C48.8231 41.8036 48.9393 41.6409 49.0188 41.4597C49.0984 41.2785 49.1394 41.0828 49.1394 40.885C49.1394 40.6871 49.0984 40.4914 49.0188 40.3102C48.9393 40.129 48.8231 39.9663 48.6774 39.8324C48.5318 39.6985 48.3599 39.5962 48.1728 39.5321C47.9856 39.468 47.7871 39.4434 47.5899 39.46C47.2326 39.4899 46.8996 39.653 46.6569 39.917C46.4141 40.1809 46.2794 40.5264 46.2794 40.885C46.2794 41.2435 46.4141 41.589 46.6569 41.853C46.8996 42.1169 47.2326 42.28 47.5899 42.31V42.31Z" fill="white" stroke="#BFBFBF" stroke-width="0.24" stroke-miterlimit="10"/>
<path d="M50.35 45.06C50.7073 45.03 51.0404 44.8669 51.2831 44.603C51.5258 44.339 51.6605 43.9935 51.6605 43.635C51.6605 43.2764 51.5258 42.9309 51.2831 42.667C51.0404 42.403 50.7073 42.2399 50.35 42.21C50.1528 42.1934 49.9544 42.218 49.7672 42.2821C49.58 42.3462 49.4082 42.4485 49.2625 42.5824C49.1169 42.7163 49.0006 42.879 48.9211 43.0602C48.8416 43.2414 48.8005 43.4371 48.8005 43.635C48.8005 43.8328 48.8416 44.0285 48.9211 44.2097C49.0006 44.3909 49.1169 44.5536 49.2625 44.6875C49.4082 44.8215 49.58 44.9237 49.7672 44.9878C49.9544 45.0519 50.1528 45.0765 50.35 45.06V45.06Z" fill="white" stroke="#BFBFBF" stroke-width="0.24" stroke-miterlimit="10"/>
<path d="M44.84 45.06C45.1973 45.03 45.5304 44.8669 45.7731 44.603C46.0158 44.339 46.1505 43.9935 46.1505 43.635C46.1505 43.2764 46.0158 42.9309 45.7731 42.667C45.5304 42.403 45.1973 42.2399 44.84 42.21C44.6428 42.1934 44.4444 42.218 44.2572 42.2821C44.07 42.3462 43.8982 42.4485 43.7525 42.5824C43.6069 42.7163 43.4906 42.879 43.4111 43.0602C43.3316 43.2414 43.2905 43.4371 43.2905 43.635C43.2905 43.8328 43.3316 44.0285 43.4111 44.2097C43.4906 44.3909 43.6069 44.5536 43.7525 44.6875C43.8982 44.8215 44.07 44.9237 44.2572 44.9878C44.4444 45.0519 44.6428 45.0765 44.84 45.06V45.06Z" fill="white" stroke="#BFBFBF" stroke-width="0.24" stroke-miterlimit="10"/>
<path d="M47.59 47.53C47.8736 47.532 48.1515 47.4495 48.3882 47.2932C48.6249 47.1368 48.8097 46.9136 48.9192 46.6519C49.0286 46.3902 49.0578 46.1018 49.0029 45.8235C48.9481 45.5452 48.8117 45.2895 48.6111 45.0889C48.4105 44.8883 48.1548 44.7519 47.8765 44.697C47.5981 44.6422 47.3098 44.6713 47.0481 44.7808C46.7864 44.8903 46.5632 45.0751 46.4068 45.3118C46.2504 45.5485 46.168 45.8263 46.17 46.11C46.1801 46.4834 46.3329 46.8388 46.5971 47.1029C46.8612 47.3671 47.2165 47.5199 47.59 47.53V47.53Z" fill="white" stroke="#BFBFBF" stroke-width="0.24" stroke-miterlimit="10"/>
<path fill-rule="evenodd" clip-rule="evenodd" d="M34.4799 44.3H31.6299C31.4826 44.3115 31.3442 44.3752 31.2397 44.4797C31.1352 44.5843 31.0714 44.7227 31.0599 44.87V47.44C31.0505 47.5881 30.9874 47.7277 30.8825 47.8326C30.7776 47.9375 30.638 48.0006 30.49 48.01H29C28.8526 47.9985 28.7142 47.9348 28.6097 47.8303C28.5052 47.7258 28.4414 47.5874 28.43 47.44V44.87C28.4205 44.7219 28.3574 44.5824 28.2525 44.4775C28.1476 44.3725 28.008 44.3095 27.86 44.3H25.27C25.1219 44.2906 24.9823 44.2275 24.8774 44.1226C24.7725 44.0177 24.7094 43.8781 24.7 43.73V42.21C24.7094 42.0619 24.7725 41.9224 24.8774 41.8175C24.9823 41.7125 25.1219 41.6495 25.27 41.64H27.83C27.978 41.6306 28.1176 41.5675 28.2225 41.4626C28.3274 41.3577 28.3905 41.2181 28.4 41.07V38.22C28.4114 38.0727 28.4752 37.9343 28.5797 37.8297C28.6842 37.7252 28.8226 37.6615 28.9699 37.65H30.59C30.7373 37.6615 30.8757 37.7252 30.9802 37.8297C31.0847 37.9343 31.1485 38.0727 31.16 38.22V41.07C31.1694 41.2181 31.2325 41.3577 31.3374 41.4626C31.4423 41.5675 31.5819 41.6306 31.7299 41.64H34.58C34.7273 41.6515 34.8657 41.7152 34.9702 41.8197C35.0747 41.9243 35.1385 42.0627 35.15 42.21V43.73C35 44.11 34.7699 44.3 34.4799 44.3Z" fill="#E5E5E5" stroke="#BFBFBF" stroke-width="0.24" stroke-miterlimit="10"/>
</g>
<defs>
<linearGradient id="paint0_linear_10717_30076" x1="31" y1="7.00004" x2="31" y2="37" gradientUnits="userSpaceOnUse">
<stop stop-color="#BEBEBE"/>
<stop offset="1" stop-color="#6F6F6F"/>
</linearGradient>
<linearGradient id="paint1_linear_10717_30076" x1="38.32" y1="33.28" x2="38.18" y2="64.36" gradientUnits="userSpaceOnUse">
<stop stop-color="#BFBFBF"/>
<stop offset="1" stop-color="#545454"/>
</linearGradient>
<clipPath id="clip0_10717_30076">
<rect width="54" height="53.32" fill="white" transform="translate(4 7)"/>
</clipPath>
</defs>
</svg>
