<svg width="16" height="16" viewBox="0 0 16 16" fill="none" xmlns="http://www.w3.org/2000/svg">
<g clip-path="url(#clip0_10717_30145)">
<path fill-rule="evenodd" clip-rule="evenodd" d="M15.4199 12C14.9499 10.66 13.9399 8.32007 12.9499 8.32007C11.4799 8.32007 11.4799 9.66992 10.8799 9.66992H9.07006C8.47006 9.66992 8.52006 8.32007 7.07006 8.32007C6.07006 8.32007 5.0701 10.66 4.6101 12C3.7701 14.5 3.67997 15.7 5.47997 15.7C7.47997 15.7 7.48002 13.4099 10.03 13.4099C12.58 13.4099 12.62 15.7 14.53 15.7C16.44 15.7 16.3099 14.52 15.4199 12ZM8.99999 12H7.99999V13H6.99999V12H5.99999V11H6.99999V10H7.99999V11H8.99999V12ZM12.5 13.25C12.1539 13.25 11.8156 13.1474 11.5278 12.9551C11.24 12.7628 11.0157 12.4894 10.8833 12.1697C10.7508 11.8499 10.7162 11.4982 10.7837 11.1587C10.8512 10.8192 11.0177 10.5072 11.2624 10.2625C11.5072 10.0177 11.8192 9.85122 12.1587 9.78369C12.4981 9.71617 12.8499 9.75085 13.1697 9.8833C13.4894 10.0158 13.7628 10.24 13.9551 10.5278C14.1474 10.8156 14.25 11.1539 14.25 11.5C14.25 11.9641 14.0657 12.4094 13.7375 12.7375C13.4093 13.0657 12.9641 13.25 12.5 13.25V13.25ZM12.5 11C12.4011 11 12.3044 11.0293 12.2222 11.0842C12.1399 11.1392 12.0759 11.2172 12.0381 11.3086C12.0002 11.4 11.9902 11.5007 12.0095 11.5977C12.0288 11.6946 12.0765 11.7836 12.1465 11.8535C12.2164 11.9234 12.3053 11.9712 12.4023 11.9905C12.4993 12.0098 12.6 11.9998 12.6914 11.9619C12.7828 11.9241 12.8608 11.8601 12.9158 11.7778C12.9707 11.6956 13 11.5989 13 11.5C13 11.3674 12.9473 11.2403 12.8535 11.1465C12.7597 11.0527 12.6326 11 12.5 11Z" fill="white"/>
<path fill-rule="evenodd" clip-rule="evenodd" d="M1 10H4C4.17 9.66 4.34003 9.32 4.53003 9H4V7H12V7.52002C12.3286 7.44234 12.6631 7.39226 13 7.37012V7H15V8.25C15.3086 8.66867 15.5797 9.11381 15.8101 9.58008C15.9265 9.41963 15.9926 9.22814 16 9.03003V1C16 0.734784 15.8946 0.480505 15.707 0.292969C15.5195 0.105432 15.2652 0 15 0H1C0.734784 0 0.480505 0.105432 0.292969 0.292969C0.105432 0.480505 0 0.734784 0 1V9C0 9.26522 0.105432 9.51949 0.292969 9.70703C0.480505 9.89457 0.734784 10 1 10ZM14 6H11V4H14V6ZM13 1H15V3H13V1ZM10 1H12V3H10V1ZM10 6H8V4H10V6ZM7 1H9V3H7V1ZM7 6H5V4H7V6ZM4 1H6V3H4V1ZM4 6H2V4H4V6ZM1 1H3V3H1V1ZM1 7H3V9H1V7Z" fill="white"/>
</g>
<defs>
<clipPath id="clip0_10717_30145">
<rect width="16" height="16" fill="white"/>
</clipPath>
</defs>
</svg>
